<?xml version="1.0" encoding="utf-8"?>
<!-- Generator: Adobe Illustrator 16.2.0, SVG Export Plug-In . SVG Version: 6.00 Build 0)  -->
<!DOCTYPE svg PUBLIC "-//W3C//DTD SVG 1.1//EN" "http://www.w3.org/Graphics/SVG/1.1/DTD/svg11.dtd">
<svg version="1.1" id="Ebene_1" xmlns="http://www.w3.org/2000/svg" xmlns:xlink="http://www.w3.org/1999/xlink" x="0px" y="0px"
	 width="128px" height="128px" viewBox="0 0 128 128" enable-background="new 0 0 128 128" xml:space="preserve">
<g>
	<path d="M9.19,23.436c-2.596,3.134-1.596,1.901-2.847,3.468c-0.851,1.089-2.513,3.407,0.991,1.068l1.994-1.316
		c6.869-4.721,9.303-6.377,11.993-8.456c0.54-0.435,1.267-0.876,1.921-0.716c0.509,0.212,0.851,1.028,0.843,1.212
		c-0.013,0.277-0.161,0.421-0.313,0.657c-0.102,0.188-0.305,0.471-0.554,0.803c-0.302,0.38-0.958,1.371-1.308,1.799
		c-3.123,4.353-5.977,9.063-8.36,13.757c-1.14,2.252-1.373,3.274-0.683,2.604c1.234-1.197,2.467-2.393,3.656-3.635
		c7.432-7.828,15.217-14.055,23.356-18.686c0.531-0.25,1.044-0.13,1.307,0.321c0.263,0.45,0.004,0.967-0.435,1.305
		c-7.992,4.486-15.629,10.571-22.864,18.207c-1.485,1.529-2.722,2.819-3.759,3.824c-0.983,0.865-1.723,1.583-2.311,2.066
		c-0.391,0.291-0.683,0.485-0.975,0.68c-0.382,0.105-0.868,0.401-1.422,0.144c-0.276-0.174-0.452-0.443-0.485-0.764
		c0.012-0.277,0.066-0.417,0.177-0.79c0.165-0.512,0.642-1.682,1.004-2.386c2.247-4.827,4.624-9.428,7.652-13.777
		c1.666-2.411,0.81-2.287-1.086-1.065c-1.651,1.074-3.701,2.531-6.333,4.379l-6.284,4.331c-0.925,0.633-1.653,1.074-2.139,1.368
		c-0.292,0.195-0.484,0.294-0.679,0.394c-0.099,0.095-0.147,0.143-0.242,0.147c-0.094,0.003-0.143,0.051-0.193,0.1
		c-0.24,0.054-0.428,0.062-0.568,0.021c-0.374-0.079-0.551-0.349-0.629-0.714l0.017-0.368c0.004-0.094,0.103-0.189,0.107-0.282
		c0.004-0.092,0.053-0.14,0.156-0.328c0.103-0.188,0.305-0.472,0.56-0.896c0.456-0.708,1.21-1.703,2.119-3.025
		c1.716-2.458,6.055-7.639,11.744-14.481l5.232-6.134c0.398-0.476,0.95-1.188,1.703-2.183c1.505-1.99,2.709-3.601,4.228-4.808
		c0.395-0.383,1.008-0.36,1.37-0.005c0.312,0.403,0.238,1.006-0.202,1.344c-1.279,1.152-2.377,2.481-3.834,4.424
		c-0.703,0.948-1.304,1.707-1.801,2.277c-0.597,0.668-2.296,2.757-5.187,6.179L9.19,23.436z"/>
	<path d="M45.378,23.888c-3.03,3.192-7.854,7.788-14.476,13.704c-1.453,1.324-3.331,3.146-5.549,5.552
		c-2.814,2.986-4.649,4.934-5.503,5.762c-0.342,0.332-0.857,0.324-1.205-0.017c-0.348-0.341-0.352-0.845-0.011-1.177
		c0.981-0.953,2.773-2.86,5.462-5.721c2.472-2.654,4.351-4.56,5.676-5.676c6.066-5.376,10.806-9.889,14.303-13.538
		c0.299-0.374,0.858-0.408,1.249-0.108C45.672,23.01,45.719,23.557,45.378,23.888z"/>
	<path d="M40.992,43.644c-0.173-0.085-0.304,0.296-0.304,0.296c-0.926,3.609-2.153,6.324-4.695,12.095
		c-0.964,2.036-1.623,3.776-2.019,5.092c-0.353,1.103-2.092,0.588-1.739-0.515c0.439-1.358,1.141-3.141,2.105-5.262
		c3.199-7,4.692-10.904,4.695-12.179c0-0.085-0.043-0.128,0.001-0.255c-0.35,0.254-1.046,0.677-1.527,1.143
		c-0.83,0.72-1.572,1.439-2.358,2.116c-0.35,0.339-1.092,0.975-2.183,1.949c-2.27,1.948-2.88,2.54-4.541,4.15
		c-0.829,0.805-1.572,1.61-2.183,2.289c-0.306,0.38-0.872,0.421-1.22,0.08c-0.39-0.298-0.433-0.851-0.084-1.19
		c0.569-0.719,1.313-1.525,2.185-2.372c1.704-1.652,2.402-2.329,4.671-4.277c1.091-0.974,1.834-1.609,2.227-1.905
		c6.243-5.547,11.352-10.672,15.371-15.249c0.35-0.425,0.439-0.935,0.919-1.23c0.129-0.042,0.173-0.085,0.305-0.126
		c0.174-0.085,0.436-0.084,0.653,0.044c4.258,2.562,5.989,6.051,5.413,9.575c-0.446,3.397-3.633,6.234-8.032,6.688
		c-2.7,0.332-5.223-0.015-7.527-0.914L40.992,43.644z M41.695,42.031c0.435,0.171,0.478,0.214,0.827,0.301
		c3.914,1.286,8.183,0.617,10.408-1.287c1.134-1.016,1.791-2.162,1.969-3.436c0.486-2.25-0.464-4.717-2.766-6.636
		c-0.565-0.469-1.217-0.342-1.741,0.166c-2.358,2.712-5.329,5.762-8.909,9.15c-0.656,0.636-0.788,1.019-0.571,1.23
		C41.259,41.86,41.695,42.031,41.695,42.031z"/>
	<path d="M67.203,44.319c0.993,0.988,3.208,3.251,3.566,3.58c0.359,0.328,0.38,0.835,0.048,1.183
		c-0.166,0.172-0.336,0.263-0.595,0.27c-0.261,0.008-0.437-0.072-0.616-0.237c-0.362-0.328-2.617-2.548-3.654-3.575
		c-0.857-0.864-1.579-1.521-2.114-1.929c-0.18-0.165-0.36-0.328-0.494-0.452c-0.523-0.07-1.077,0.157-1.077,0.157
		c-0.548,0.395-1.303,1.007-2.179,1.834c-1.546,1.438-3.544,3.437-6.084,6l-0.499,0.521c-0.541,0.564-0.518,1.156,0.109,1.646
		c0.761,0.613,1.571,1.352,1.796,1.557c0.401,0.285,0.468,0.833,0.179,1.221c-0.333,0.347-0.894,0.405-1.254,0.077
		c-0.177-0.079-0.582-0.449-1.255-1.064c-0.27-0.246-0.582-0.449-0.807-0.654c-0.494-0.451-1.098-0.35-1.597,0.171
		c-1.164,1.215-2.411,2.518-3.821,4.077c-1.743,1.908-2.7,2.907-2.907,3.123c-0.042,0.043-0.416,0.435-1.081,1.129
		c-0.711,0.652-1.293,1.26-1.75,1.739c-0.665,0.695-1.205,1.259-1.534,1.691c-0.082,0.17-0.206,0.302-0.331,0.433
		c0.09,0.08,0.18,0.164,0.271,0.244c0.225,0.205,0.408,0.454,0.813,0.825l1.439,1.31c0.585,0.535,1.259,1.151,2.156,1.887
		c0.809,0.738,1.259,1.147,1.349,1.232c0.359,0.327,0.379,0.834,0.048,1.182c-0.333,0.345-0.853,0.361-1.211,0.033
		c-0.09-0.082-0.541-0.494-1.392-1.188c-0.852-0.697-1.525-1.31-2.11-1.845c-0.899-0.819-1.575-1.435-2.028-1.93
		c-0.135-0.123-0.27-0.246-0.404-0.369c-0.27-0.247-0.582-0.45-0.733-0.995c-0.045-0.041-0.05-0.123-0.052-0.209
		c-0.058-0.379,0.101-0.722,0.265-0.98c0.12-0.215,0.329-0.431,0.578-0.692c0.37-0.474,0.911-1.038,1.617-1.777
		c0.458-0.477,1.04-1.084,1.75-1.738c0.666-0.694,1.04-1.084,1.082-1.128c0.041-0.044,1.288-1.346,3.737-3.992
		c4.9-5.291,9.308-9.892,12.439-12.81c0.918-0.871,1.673-1.484,2.304-1.965c0.676-0.441,1.35-0.883,1.918-0.772
		c0.567,0.112,1.15,0.561,1.866,1.132L67.203,44.319z"/>
	<path d="M75.537,51.887c0.009-0.092,0.111-0.186,0.172-0.326c0.982-1.502,2.707-1.021,2.664,0.649
		c-0.006,0.094-0.022,0.279-0.081,0.419c-0.024,0.279-0.1,0.605-0.196,1.21c-0.216,0.886-0.536,1.865-0.967,3.032
		c-1.237,2.851-1.565,3.924-1.909,5.785c-0.263,1.443-0.712,1.682,1.088,1.233c4.237-1.047,7.531-1.66,9.976-1.842
		c0.045,0.046,0.045,0.046,0.096-0.001c0,0,0.053-0.047,0.149-0.048c0.095-0.002,0.241-0.051,0.389-0.1
		c0.588-0.196,1.5-0.259,1.709,0.666c0.08,0.184,0.064,0.37-0.003,0.603l-0.117,0.281c-0.052,0.048-0.154,0.142-0.267,0.33
		c-0.111,0.188-0.37,0.424-0.635,0.753c-0.847,1.035-1.416,1.554-5.164,5.33c-2.497,2.549-4.887,4.908-7.113,7.033
		c-6.178,6.091-10.913,10.859-15.021,15.568c-0.37,0.424-1.002,0.574-1.353,0.209c-0.403-0.32-0.496-0.92-0.083-1.299
		c4.065-4.755,8.902-9.615,15.177-15.708c3.066-3.065,5.404-5.381,7.064-6.987c1.827-1.932,2.919-3.019,3.229-3.301
		c0.257-0.237,0.418-0.472,0.677-0.708c0.31-0.283-0.717-0.544-1.974-0.337c-1.743,0.309-3.925,0.763-6.36,1.361l-1.021,0.249
		c-1.411,0.35-3.046-0.231-2.526-2.32c0.532-2.979,0.8-3.912,2.127-7.274c0.179-0.42,0.357-0.84,0.424-1.074
		c0.476-1.122-1.133,0.437-2.164,1.382c-0.678,0.708-1.506,1.464-2.383,2.268c-1.856,1.702-4.688,4.209-8.49,7.521
		c-3.848,3.268-6.677,5.775-8.535,7.479c-0.414,0.377-0.98,0.895-1.702,1.559c-0.767,0.615-1.334,1.138-1.748,1.515
		c-0.877,0.803-2.13,2.124-2.936,3.204c-0.318,0.377-0.958,0.619-1.316,0.347c-0.404-0.317-0.592-0.917-0.223-1.34
		c1.085-1.597,2.324-2.731,4.689-4.813c1.18-0.994,1.85-1.607,2.005-1.75c1.857-1.701,4.688-4.21,8.535-7.478
		c3.803-3.312,6.634-5.819,8.491-7.521c2.321-2.127,4.092-3.919,5.457-5.427c0.051-0.048,0.051-0.048,0.059-0.14L75.537,51.887z"/>
	<path d="M92.858,86.106c-7.762,7.441-12.209,10.771-15.875,12.614c-2.414,1.231-4.393,1.595-5.934,1.175
		c-2.058-0.533-2.841-2.103-2.605-3.998c0.252-1.43,1.05-3.256,2.43-5.432c2.998-4.635,12.372-16.15,20.888-18.379
		c1.85-0.41,4.311-0.07,5.819,0.943c2.511,1.747,2.412,4.328,0.92,6.923C97.97,80.902,96.888,82.413,92.858,86.106z M93.855,82.977
		c1.335-1.33,2.404-2.589,3.081-3.826c1.198-2.016,1.201-3.628-0.391-4.73c-1.002-0.733-2.948-0.961-4.356-0.611
		c-7.851,1.963-16.806,12.949-19.801,17.585c-1.239,1.972-2.022,3.543-2.174,4.724c-0.151,1.179,0.208,1.751,1.276,2.104
		c2.224,0.626,6.299-1.494,10.937-5.153C84.834,91.2,88.268,88.113,93.855,82.977z"/>
	<path d="M95.627,96.276c-0.688-0.297-1.275-0.152-1.808,0.39c-7.616,7.374-11.847,11.488-12.647,12.302
		c-0.356,0.362-0.902,0.373-1.272,0.025s-0.382-0.881-0.026-1.241c2.049-2.079,4.942-4.927,8.638-8.5
		c7.037-6.874,9.803-9.232,15.934-16.089c0.887-0.991,0.516-1.428-0.31-1.765c-0.045-0.044-0.137-0.042-0.185-0.085
		c-1.143-0.377-0.543-2.075,0.604-1.694c3.429,1.215,6.125,4.177,7.147,7.568c1.301,3.655,0.424,7.353-2.979,9.723
		c-2.062,1.458-4.549,1.903-7.424,1.296c-0.456-0.079-0.866-0.205-1.279-0.33c-0.774-0.206-1.176,0.111-1.296,0.955
		c-0.318,2.134-1.589,4.509-3.76,7.166c-0.311,0.404-0.888,1.079-1.73,2.027c-1.687,1.895-2.129,2.436-3.101,3.872
		c-0.438,0.717-0.835,1.392-1.003,2.014c-0.041,0.222-0.081,0.446-0.079,0.623c0.003,0.088-0.042,0.133-0.039,0.221
		c0.274,0.173,0.55,0.257,0.91,0.25c0.094-0.002,0.184-0.004,0.273-0.006c1.224-0.156,1.442,1.612,0.219,1.769
		c-2.312,0.267-3.879-0.854-3.023-3.444c0.426-1.426,1.705-3.266,2.549-4.302c0.442-0.541,1.063-1.263,1.95-2.256
		c0.847-0.945,1.375-1.579,1.643-1.938c2.306-2.703,3.486-4.897,3.351-7.109c-0.013-0.711-0.384-1.059-1.071-1.354L95.627,96.276z
		 M107.691,95.423c2.597-1.824,3.266-4.673,2.296-7.668c-0.438-1.454-1.146-2.639-2.074-3.684c-0.604-0.652-1.282-0.595-1.815,0.036
		c-2.489,2.707-5.468,5.824-8.986,9.217c-0.668,0.676-0.516,1.428,0.398,1.765C101.68,96.824,104.688,97.474,107.691,95.423z"/>
	<path d="M120.114,97.255c-0.086,0-0.086,0-0.129,0.041c-0.046,0.042-0.306,0.126-0.74,0.464c-0.088,0.085-0.218,0.126-0.349,0.253
		c-1.522,1.141-3.179,3-5.314,5.406c-1.875,2.073-1.656,2.031-3.526,3.678c-0.914,0.803-0.7,1.186-0.094,1.782
		c0.519,0.509,0.995,0.977,1.387,1.271c0.39,0.299,0.43,0.85,0.127,1.229c-0.351,0.338-0.914,0.379-1.261,0.041
		c-0.477-0.383-0.951-0.851-1.559-1.445c-0.562-0.555-0.865-0.851-1.779-0.049c-4.483,3.929-7.923,7.181-10.146,9.674
		c-0.697,0.76-1.179,1.396-1.482,1.86c-0.086,0.084-0.131,0.211-0.174,0.254c-0.002,0.084,0.349-0.168,0.478-0.298
		c-0.436,0.423-0.565,0.889-0.178,1.441c0.779,1.106,2.209,2.169,3.551,3.317c0.691,0.594,1.169,1.063,1.472,1.36
		c0.347,0.339,0.345,0.847-0.004,1.184c-0.349,0.339-0.869,0.337-1.217-0.002c-0.562-0.553-2.554-2.169-3.161-2.68
		c-1.47-1.358-2.381-2.504-2.768-3.482c-0.302-0.636,0.048-1.313,0.485-1.988c0.347-0.592,0.872-1.271,1.656-2.116
		c2.482-2.747,6.358-6.336,9.363-8.997c1.479-1.352,2.741-2.407,3.785-3.337c2.003-1.771,1.743-1.604,3.702-3.844
		c2.136-2.41,3.922-4.396,5.534-5.619c0.997-0.718,1.912-1.265,2.781-1.093c0.476,0.128,1.04,0.597,1.603,1.148
		c0.303,0.298,0.994,0.977,2.034,2.082c2.079,2.126,3.158,3.271,3.332,3.441c0.391,0.299,0.433,0.849,0.126,1.228
		c-0.172,0.17-0.39,0.297-0.608,0.256c-0.563,0.039-0.779-0.342-1.169-0.728c-0.563-0.551-1.603-1.571-2.986-3.016
		c-1.039-1.104-1.688-1.74-1.948-1.997c-0.303-0.298-0.521-0.511-0.693-0.596L120.114,97.255z"/>
</g>
</svg>
